PathFileType	4	(X/Y/Z)	/home/abdul/Desktop/myosuite/custom_workspace/IK/output/S19_12_1.trc
DataRate	CameraRate	NumFrames	NumMarkers	Units	OrigDataRate	OrigDataStartFrame	OrigNumFrames
200.0	200.0	56	3	mm	200.0	848	1694
Frame#	Time	V_Shoulder			V_Elbow			V_Wrist		
		X1	Y1	Z1	X2	Y2	Z2	X3	Y3	Z3

848	4.235	-103.20762769928426	667.7936643268835	319.0006680939421				-108.25867201839463	229.07452283441168	124.68589334960257
849	4.24	-103.2309964461741	667.4251962403172	318.86812408589134				-108.00714751067281	228.393348500934	123.49747673914176
850	4.245	-103.2543923470724	667.0566966559147	318.7353749445712				-107.74420125160032	227.7283851765597	122.29930056629459
851	4.25	-103.27778649227008	666.6882379091056	318.60248705062344				-107.47000980246023	227.0795047690603	121.09203482086842
852	4.255	-103.30114996733123	666.3198926750512	318.4695273472723				-107.18476908318513	226.4465591463187	119.87637466865294
853	4.26	-103.32445388574972	665.9517338844518	318.33656323937106				-106.88869404630394	225.8293802768319	118.65303892857246
854	4.265	-103.34766942157735	665.5838346382031	318.2036624911395				-106.58201829518512	225.22778043792817	117.42276848736098
855	4.27	-103.37076784196283	665.2162681211012	318.07089312281636				-106.26499364719714	224.64155249109746	116.18632465544191
856	4.275	-103.39372053953998	664.8491075147967	317.9383233064557				-105.93788964262579	224.07047022357563	114.94448746789877
857	4.28	-103.41649906460646	664.4824259102058	317.8060212610944				-105.6009930004056	223.51428875507276	113.69805393462204
858	4.285	-103.43907515703364	664.1162962195864	317.67405514752375				-105.25460702193935	222.9727450082865	112.44783624390863
859	4.29	-103.46142077785174	663.7507910884914	317.54249296289476				-104.89905094449267	222.4455582415993	111.19465992397272
860	4.295	-103.48350814045364	663.3859828078116	317.4114024353896				-104.53465924586092	221.93243064212064	109.93936196700108
861	4.3	-103.5053097413645	663.0219432261229	317.2808509191913				-104.1617809022103	221.43304797700705	108.6827889205484
862	4.305	-103.52679839052489	662.6587436625492	317.1509052899809				-103.78077860119498	220.94708030076808	107.4257949512203
863	4.31	-103.54794724103738	662.2964548203605	317.0216318411929				-103.39202791264418	220.47418271605613	106.1692398857314
864	4.315	-103.56872981832902	661.9351467015139	316.89309618125424				-102.9959164192988	220.01399618523138	104.91398723455092
865	4.32	-103.5891200486836	661.5748885223525	316.7653631320331				-102.5928428102534	219.56614838980232	103.66090220346052
866	4.325	-103.60909228710067	661.2157486306687	316.6384966287167				-102.18321593992749	219.13025463465806	102.41084969844579
867	4.33	-103.62862134443962	660.8577944243414	316.5125596213384				-101.76745385554527	218.70591879383988	101.16469232942258
868	4.335	-103.64768251381078	660.5010922717469	316.38761397816484				-101.34598279625055	218.29273429444157	99.9232884183635
869	4.34	-103.66625159617683	660.1457074341446	316.26372039115387				-100.91923616711657	217.89028513508407	98.68749001743534
870	4.345	-103.684304925131	659.7917039902318	316.1409382836853				-100.48765349143126	217.49814693528072	97.45814094278632
871	4.35	-103.7018193908208	659.4391447630541	316.0193257207638				-100.05167934474744	217.11588801189356	96.23607482963055
872	4.355	-103.71877246298924	659.0880912494572	315.89893932188266				-99.61176227428007	216.74307047878142	95.02211321426677
873	4.36	-103.73514221310693	658.7386035522562	315.779834176737				-99.16835370731269	216.37925136565642	93.81706364863763
874	4.365	-103.75090733557226	658.3907403152901	315.6620637639608				-98.72190685233913	216.02398375209737	92.62171785298573
875	4.37	-103.766047167959	658.0445586615265	315.5456798730607				-98.27287559671538	215.6768179126172	91.4368499120911
876	4.375	-103.78054171029224	657.7001141343688	315.43073252970703				-97.82171340462935	215.337302468646	90.26321452048404
877	4.38	-103.7943716433381	657.3574606423131	315.31726992453827				-97.36887221921285	215.00498554327405	89.10154528191417
878	4.385	-103.807518345893	657.0166504070908	315.2053383456223				-96.9148013726207	214.67941591459754	87.95255306822514
879	4.39	-103.81996391106195	656.6777339154237	315.09498211471356				-96.45994650788538	214.36014416352697	86.81692444263066
880	4.395	-103.83169116151731	656.3407598745121	314.98624352743167				-96.0047485163233	214.04672381194936	85.69532015221475
881	4.4	-103.84268366373185	656.0057751713606	314.87916279748055				-95.54964249421944	213.73871244718768	84.58837369428713
882	4.405	-103.85292574118154	655.672824836042	314.7737780050161				-95.09505672245135	213.43567282876555	83.49668996101197
883	4.41	-103.86240248651681	655.3419520089819	314.6701250492603				-94.64141167263216	213.13717397356982	82.42084396649838
884	4.415	-103.87109977270131	655.0131979123443	314.56823760544967				-94.18911904325441	212.84279221560166	81.36137966029325
885	4.42	-103.87900426312099	654.6866018255779	314.4681470861956				-93.73858082920299	212.55211223662332	80.31880883095059
886	4.425	-103.88610342066653	654.3622010651812	314.3698826073235				-93.29018842787802	212.26472806413534	79.29361010307146
887	4.43	-103.89238551579508	654.0400309687208	314.27347095824666				-92.84432178502489	211.98024403326576	78.28622803091079
888	4.435	-103.89783963357809	653.7201248831385	314.17893657691985				-92.40134858321245	211.69827570930872	77.29707229133689
889	4.44	-103.90245567974374	653.4025141573611	314.0863015294079				-91.9616234757298	211.41845076782292	76.32651697860572
890	4.445	-103.90622438572433	653.0872281392188	313.9955854940913				-91.52548736848962	211.14040982938332	75.37490000307608
891	4.45	-103.90913731271951	652.7742941766669	313.90680575052215				-91.09326675233177	210.86380724627463	74.44252259564534
892	4.455	-103.91118685478814	652.4637376232895	313.8199771729306				-90.66527308791476	210.58831183862083	73.52964891933078
893	4.46	-103.91236624098242	652.1555818480584	313.7351122283737				-90.24180224516873	210.31360757766066	72.63650578905718
894	4.465	-103.91266953653853	651.8498482493025	313.6522209795041				-89.8231339990578	210.03939421410269	71.76328250034265
895	4.47	-103.91209164313979	651.5465562728315	313.5713110919292				-89.40953158316844	209.7653878497248	70.91013076719983
896	4.475	-103.91062829826848	651.2457234341547	313.4923878461174				-89.00124130240067	209.49132145062254	70.0771647691921
897	4.48	-103.90827607366286	650.9473653447093	313.4154541537974				-88.59849220579467	209.21694530075217	69.26446130720436
898	4.485	-103.90503237289761	650.6514957420167	313.3405105787902				-88.20149582027481	208.9420273946638	68.47206006710879
899	4.49	-103.9008954281054	650.358126523665	313.267555362197				-87.81044594584112	208.66635376857	67.69996399012692
900	4.495	-103.89586429585808	650.0672677850075	313.19658445186263				-87.42551851248213	208.3897287691488	66.94813974831447
901	4.5	-103.88993885222652	649.7789278604578	313.12759153601814				-87.0468714988271	208.11197525973427	66.21651832322418
902	4.505	-103.88311978703814	649.493113368252	313.0605680810018				-86.67464491229931	207.83293476380018	65.50499568543685
903	4.51	-103.87540859735138	649.2098292585397	312.99550337294573				-86.30896083027729	207.55246754589675	64.81343357229446
